<svg xmlns="http://www.w3.org/2000/svg" xmlns:xlink="http://www.w3.org/1999/xlink" fill="#000000" height="800px" width="800px" id="Capa_1" viewBox="0 0 393.335 393.335" xml:space="preserve"><g>	<path d="M361.64,68.385c-3.135-4.546-9.363-5.691-13.909-2.557c-4.547,3.135-5.691,9.362-2.557,13.909  c13.295,19.284,20.323,42.543,20.323,67.264c0,24.628-7.35,48.71-20.694,67.81c-3.163,4.527-2.058,10.762,2.47,13.925  c1.744,1.219,3.741,1.804,5.719,1.804c3.156,0,6.262-1.49,8.206-4.273c15.897-22.752,24.3-50.162,24.3-79.265  C385.498,118.208,377.248,91.022,361.64,68.385z"></path>	<path d="M328.775,96.639c-3.135-4.546-9.363-5.691-13.909-2.557c-4.547,3.135-5.691,9.362-2.557,13.909  c7.72,11.198,11.801,24.727,11.801,39.124c0,14.344-4.268,28.352-12.017,39.442c-3.163,4.527-2.058,10.762,2.47,13.925  c1.744,1.219,3.741,1.804,5.719,1.804c3.156,0,6.262-1.49,8.206-4.273c10.22-14.627,15.622-32.227,15.622-50.897  C344.11,128.645,338.808,111.19,328.775,96.639z"></path>	<path d="M256.569,0c-3.596,0-7.134,0.998-10.231,2.887l-77.749,47.408c-3.156,1.925-9.635,3.744-13.332,3.744h-35.481  c-7.01,0-17.052,2.305-23.36,5.362L63.108,75.542c-3.978,1.928-7.479,5.227-10.065,9.148c-0.209-0.009-0.413-0.031-0.625-0.031  c-1.345,0-2.7,0.193-4.026,0.573l-28.504,8.174c-6.982,2.002-12.05,8.727-12.05,15.991v75.807c0,7.264,5.068,13.989,12.05,15.991  l27.245,7.813l-18.589,120.13c-0.923,5.969-1.647,15.374-1.647,21.411v22.787c0,11.028,8.972,20,20,20h91.015  c9.754,0,13.197-5.77,14.224-8.25c1.028-2.48,2.673-8.995-4.224-15.892l-19.394-19.394c-2.093-2.093-4.432-7.434-4.55-10.391  l-3.951-98.847h35.24c3.697,0,10.176,1.819,13.332,3.744l77.749,47.407c3.716,2.266,8.233,3.464,13.064,3.464h0  c5.423,0,10.611-1.541,14.607-4.338c12.382-8.667,19.201-57.59,19.201-137.757c0-106.599-18.732-141.543-19.53-142.979  C270.218,3.872,263.661,0,256.569,0z M68.47,98.901c0-1.675,1.853-4.631,3.36-5.362l27.946-13.543v134.606L71.83,201.06  c-1.507-0.73-3.36-3.687-3.36-5.362V98.901z M45.955,187.863l-18.117-5.195v-70.735l18.117-5.195V187.863z M46.896,373.335v-22.787  c0-5.002,0.646-13.407,1.412-18.353l17.319-111.916l30.789,14.921c1.048,0.508,2.206,0.992,3.429,1.451l4.139,103.556  c0.322,8.054,4.692,18.035,10.392,23.735l9.394,9.394H46.896z M261.582,274.874c-0.545,0.166-1.283,0.303-2.18,0.303  c-1.395,0-2.323-0.339-2.652-0.54l-77.749-47.408c-6.234-3.801-16.442-6.668-23.744-6.668h-35.481V74.039h35.481  c7.302,0,17.51-2.867,23.744-6.668l77.378-47.182c1.838,3.89,16.831,38.687,16.831,132.893  C273.21,246.246,263.979,270.222,261.582,274.874z"></path></g></svg>