<?xml version="1.0" standalone="no"?>
<!DOCTYPE svg PUBLIC "-//W3C//DTD SVG 20010904//EN"
 "http://www.w3.org/TR/2001/REC-SVG-20010904/DTD/svg10.dtd">
<svg version="1.0" xmlns="http://www.w3.org/2000/svg"
 width="2000.000000pt" height="1500.000000pt" viewBox="0 0 2000.000000 1500.000000"
 preserveAspectRatio="xMidYMid meet">

<g transform="translate(0.000000,1500.000000) scale(0.100000,-0.100000)"
fill="#000000" stroke="none">
<path d="M8495 13965 c-820 -138 -2412 -930 -3630 -1805 -940 -675 -1494
-1230 -2020 -2025 -1170 -1766 -1740 -4004 -1484 -5825 140 -995 498 -1839
1085 -2555 271 -331 723 -680 1184 -914 585 -298 1196 -436 1845 -418 243 7
418 26 635 69 625 124 1200 399 1670 797 543 462 926 1074 1103 1766 126 490
145 948 71 1745 -58 639 -190 1070 -443 1456 -386 591 -1015 1055 -2111 1559
-305 141 -434 204 -600 298 -515 290 -800 579 -892 902 -19 67 -23 102 -22
220 1 118 5 155 28 239 112 413 411 843 1175 1686 232 256 258 282 406 406
354 295 635 493 1368 964 586 376 798 531 968 706 80 83 154 189 183 264 42
107 38 227 -12 334 -56 120 -112 147 -306 145 -67 -1 -157 -7 -201 -14z"/>
<path d="M18205 13930 c-742 -67 -2352 -836 -3629 -1732 -1026 -720 -1596
-1283 -2151 -2123 -836 -1266 -1363 -2748 -1511 -4250 -21 -217 -30 -860 -15
-1092 76 -1170 445 -2174 1096 -2983 135 -167 193 -228 339 -357 528 -463
1096 -763 1739 -918 937 -226 1945 -81 2768 396 595 345 1057 829 1363 1429
280 549 410 1190 376 1853 -35 693 -80 1047 -175 1377 -214 746 -726 1315
-1665 1855 -182 105 -469 250 -730 369 -668 306 -1003 513 -1256 777 -124 131
-206 264 -254 414 -31 99 -39 290 -16 406 83 413 373 849 1104 1664 276 307
387 417 572 566 311 252 593 451 1113 785 664 427 843 550 1028 710 283 244
379 455 305 667 -44 124 -97 169 -223 187 -37 5 -75 9 -83 8 -8 0 -51 -4 -95
-8z"/>
</g>
</svg>
